<svg xmlns="http://www.w3.org/2000/svg" viewBox="385 477 1180 126" preserveAspectRatio="xMidYMid meet" role="presentation" focusable="false"><defs><clipPath id="malow-brand-clip"><rect x="0" width="1180" y="0" height="126"/></clipPath></defs><g transform="matrix(1, 0, 0, 1, 385, 477)"><g clip-path="url(#malow-brand-clip)"><g fill="#958a89" fill-opacity="1"><g transform="translate(3.850644, 91.528172)"><g><path d="M 2.484375 0 L 1.234375 0 L 1.234375 -86.90625 L 11.171875 -86.90625 L 35.25 -35.5 L 58.96875 -86.90625 L 68.890625 -86.90625 L 68.890625 0 L 58.96875 0 L 58.96875 -84.171875 L 31.53125 -24.953125 L 30.296875 -24.953125 L 2.484375 -84.296875 Z M 2.484375 0 "/></g></g></g><g fill="#958a89" fill-opacity="1"><g transform="translate(107.63194, 91.528172)"><g><path d="M 26.8125 -78.828125 L 16.140625 -44.0625 L 37.484375 -44.0625 Z M 61.078125 0 L 51.140625 0 L 37.984375 -42.828125 L 15.640625 -42.828125 L 2.484375 0 L 1.234375 0 L 26.1875 -80.8125 L 24.328125 -86.90625 L 34.265625 -86.90625 Z M 61.078125 0 "/></g></g></g><g fill="#958a89" fill-opacity="1"><g transform="translate(202.972437, 91.528172)"><g><path d="M 2.484375 0 L 2.484375 -86.90625 L 12.421875 -86.90625 L 12.421875 -1.359375 L 45.9375 -2.484375 L 45.9375 0 Z M 2.484375 0 "/></g></g></g><g fill="#958a89" fill-opacity="1"><g transform="translate(276.961503, 91.528172)"><g><path d="M 44.6875 -88.140625 C 49.820312 -88.140625 54.929688 -87.125 60.015625 -85.09375 C 65.109375 -83.070312 69.742188 -80.113281 73.921875 -76.21875 C 78.097656 -72.332031 81.425781 -67.65625 83.90625 -62.1875 C 86.394531 -56.726562 87.640625 -50.523438 87.640625 -43.578125 C 87.640625 -36.617188 86.394531 -30.367188 83.90625 -24.828125 C 81.425781 -19.285156 78.097656 -14.566406 73.921875 -10.671875 C 69.742188 -6.785156 65.109375 -3.828125 60.015625 -1.796875 C 54.929688 0.222656 49.820312 1.234375 44.6875 1.234375 C 39.5625 1.234375 34.472656 0.222656 29.421875 -1.796875 C 24.367188 -3.828125 19.753906 -6.785156 15.578125 -10.671875 C 11.398438 -14.566406 8.066406 -19.285156 5.578125 -24.828125 C 3.097656 -30.367188 1.859375 -36.617188 1.859375 -43.578125 C 1.859375 -50.523438 3.097656 -56.726562 5.578125 -62.1875 C 8.066406 -67.65625 11.398438 -72.332031 15.578125 -76.21875 C 19.753906 -80.113281 24.367188 -83.070312 29.421875 -85.09375 C 34.472656 -87.125 39.5625 -88.140625 44.6875 -88.140625 Z M 44.6875 -86.65625 C 40.96875 -86.65625 37.285156 -85.679688 33.640625 -83.734375 C 30.003906 -81.785156 26.691406 -78.96875 23.703125 -75.28125 C 20.722656 -71.601562 18.320312 -67.09375 16.5 -61.75 C 14.6875 -56.414062 13.78125 -50.398438 13.78125 -43.703125 C 13.78125 -36.828125 14.6875 -30.695312 16.5 -25.3125 C 18.320312 -19.9375 20.722656 -15.382812 23.703125 -11.65625 C 26.691406 -7.9375 30.003906 -5.101562 33.640625 -3.15625 C 37.285156 -1.21875 40.96875 -0.25 44.6875 -0.25 C 48.414062 -0.25 52.117188 -1.257812 55.796875 -3.28125 C 59.484375 -5.3125 62.816406 -8.25 65.796875 -12.09375 C 68.773438 -15.945312 71.171875 -20.601562 72.984375 -26.0625 C 74.804688 -31.53125 75.71875 -37.695312 75.71875 -44.5625 C 75.71875 -51.269531 74.804688 -57.25 72.984375 -62.5 C 71.171875 -67.757812 68.773438 -72.164062 65.796875 -75.71875 C 62.816406 -79.28125 59.484375 -81.992188 55.796875 -83.859375 C 52.117188 -85.722656 48.414062 -86.65625 44.6875 -86.65625 Z M 44.6875 -86.65625 "/></g></g></g><g fill="#958a89" fill-opacity="1"><g transform="translate(395.761955, 91.528172)"><g><path d="M 11.171875 -86.90625 L 30.296875 -9.0625 L 47.671875 -77.953125 L 45.4375 -86.90625 L 55.359375 -86.90625 L 74.484375 -9.0625 L 94.09375 -86.90625 L 95.34375 -86.90625 L 73.484375 0 L 67.28125 0 L 48.296875 -75.609375 L 29.296875 0 L 23.09375 0 L 1.234375 -86.90625 Z M 11.171875 -86.90625 "/></g></g></g><g fill="#958a89" fill-opacity="1"><g transform="translate(525.362211, 91.528172)"><g/></g></g><g fill="#958a89" fill-opacity="1"><g transform="translate(589.422034, 91.528172)"><g><path d="M 2.484375 0 L 2.484375 -86.90625 L 12.421875 -86.90625 L 12.421875 -1.359375 L 45.9375 -2.484375 L 45.9375 0 Z M 2.484375 0 "/></g></g></g><g fill="#958a89" fill-opacity="1"><g transform="translate(663.411099, 91.528172)"><g><path d="M 44.6875 -88.140625 C 49.820312 -88.140625 54.929688 -87.125 60.015625 -85.09375 C 65.109375 -83.070312 69.742188 -80.113281 73.921875 -76.21875 C 78.097656 -72.332031 81.425781 -67.65625 83.90625 -62.1875 C 86.394531 -56.726562 87.640625 -50.523438 87.640625 -43.578125 C 87.640625 -36.617188 86.394531 -30.367188 83.90625 -24.828125 C 81.425781 -19.285156 78.097656 -14.566406 73.921875 -10.671875 C 69.742188 -6.785156 65.109375 -3.828125 60.015625 -1.796875 C 54.929688 0.222656 49.820312 1.234375 44.6875 1.234375 C 39.5625 1.234375 34.472656 0.222656 29.421875 -1.796875 C 24.367188 -3.828125 19.753906 -6.785156 15.578125 -10.671875 C 11.398438 -14.566406 8.066406 -19.285156 5.578125 -24.828125 C 3.097656 -30.367188 1.859375 -36.617188 1.859375 -43.578125 C 1.859375 -50.523438 3.097656 -56.726562 5.578125 -62.1875 C 8.066406 -67.65625 11.398438 -72.332031 15.578125 -76.21875 C 19.753906 -80.113281 24.367188 -83.070312 29.421875 -85.09375 C 34.472656 -87.125 39.5625 -88.140625 44.6875 -88.140625 Z M 44.6875 -86.65625 C 40.96875 -86.65625 37.285156 -85.679688 33.640625 -83.734375 C 30.003906 -81.785156 26.691406 -78.96875 23.703125 -75.28125 C 20.722656 -71.601562 18.320312 -67.09375 16.5 -61.75 C 14.6875 -56.414062 13.78125 -50.398438 13.78125 -43.703125 C 13.78125 -36.828125 14.6875 -30.695312 16.5 -25.3125 C 18.320312 -19.9375 20.722656 -15.382812 23.703125 -11.65625 C 26.691406 -7.9375 30.003906 -5.101562 33.640625 -3.15625 C 37.285156 -1.21875 40.96875 -0.25 44.6875 -0.25 C 48.414062 -0.25 52.117188 -1.257812 55.796875 -3.28125 C 59.484375 -5.3125 62.816406 -8.25 65.796875 -12.09375 C 68.773438 -15.945312 71.171875 -20.601562 72.984375 -26.0625 C 74.804688 -31.53125 75.71875 -37.695312 75.71875 -44.5625 C 75.71875 -51.269531 74.804688 -57.25 72.984375 -62.5 C 71.171875 -67.757812 68.773438 -72.164062 65.796875 -75.71875 C 62.816406 -79.28125 59.484375 -81.992188 55.796875 -83.859375 C 52.117188 -85.722656 48.414062 -86.65625 44.6875 -86.65625 Z M 44.6875 -86.65625 "/></g></g></g><g fill="#958a89" fill-opacity="1"><g transform="translate(785.935982, 91.528172)"><g><path d="M 2.484375 0 L 1.234375 0 L 1.234375 -86.90625 L 11.171875 -86.90625 L 50.15625 -2.734375 L 50.15625 -86.90625 L 51.390625 -86.90625 L 51.390625 0 L 41.46875 0 L 2.484375 -84.171875 Z M 2.484375 0 "/></g></g></g><g fill="#958a89" fill-opacity="1"><g transform="translate(871.594339, 91.528172)"><g><path d="M 32.15625 -86.90625 C 37.53125 -86.90625 42.222656 -85.679688 46.234375 -83.234375 C 50.253906 -80.796875 53.609375 -77.503906 56.296875 -73.359375 C 58.984375 -69.222656 61.007812 -64.566406 62.375 -59.390625 C 63.738281 -54.222656 64.421875 -48.90625 64.421875 -43.4375 C 64.421875 -37.976562 63.738281 -32.660156 62.375 -27.484375 C 61.007812 -22.316406 58.984375 -17.664062 56.296875 -13.53125 C 53.609375 -9.394531 50.253906 -6.101562 46.234375 -3.65625 C 42.222656 -1.21875 37.53125 0 32.15625 0 L 2.484375 0 L 2.484375 -86.90625 Z M 12.421875 -1.234375 L 32.15625 -1.234375 C 35.550781 -1.234375 38.507812 -2.410156 41.03125 -4.765625 C 43.550781 -7.128906 45.660156 -10.316406 47.359375 -14.328125 C 49.054688 -18.347656 50.335938 -22.859375 51.203125 -27.859375 C 52.078125 -32.867188 52.515625 -38.0625 52.515625 -43.4375 C 52.515625 -48.820312 52.078125 -54.019531 51.203125 -59.03125 C 50.335938 -64.039062 49.054688 -68.550781 47.359375 -72.5625 C 45.660156 -76.570312 43.550781 -79.753906 41.03125 -82.109375 C 38.507812 -84.472656 35.550781 -85.65625 32.15625 -85.65625 L 12.421875 -85.65625 Z M 12.421875 -1.234375 "/></g></g></g><g fill="#958a89" fill-opacity="1"><g transform="translate(970.907033, 91.528172)"><g><path d="M 44.6875 -88.140625 C 49.820312 -88.140625 54.929688 -87.125 60.015625 -85.09375 C 65.109375 -83.070312 69.742188 -80.113281 73.921875 -76.21875 C 78.097656 -72.332031 81.425781 -67.65625 83.90625 -62.1875 C 86.394531 -56.726562 87.640625 -50.523438 87.640625 -43.578125 C 87.640625 -36.617188 86.394531 -30.367188 83.90625 -24.828125 C 81.425781 -19.285156 78.097656 -14.566406 73.921875 -10.671875 C 69.742188 -6.785156 65.109375 -3.828125 60.015625 -1.796875 C 54.929688 0.222656 49.820312 1.234375 44.6875 1.234375 C 39.5625 1.234375 34.472656 0.222656 29.421875 -1.796875 C 24.367188 -3.828125 19.753906 -6.785156 15.578125 -10.671875 C 11.398438 -14.566406 8.066406 -19.285156 5.578125 -24.828125 C 3.097656 -30.367188 1.859375 -36.617188 1.859375 -43.578125 C 1.859375 -50.523438 3.097656 -56.726562 5.578125 -62.1875 C 8.066406 -67.65625 11.398438 -72.332031 15.578125 -76.21875 C 19.753906 -80.113281 24.367188 -83.070312 29.421875 -85.09375 C 34.472656 -87.125 39.5625 -88.140625 44.6875 -88.140625 Z M 44.6875 -86.65625 C 40.96875 -86.65625 37.285156 -85.679688 33.640625 -83.734375 C 30.003906 -81.785156 26.691406 -78.96875 23.703125 -75.28125 C 20.722656 -71.601562 18.320312 -67.09375 16.5 -61.75 C 14.6875 -56.414062 13.78125 -50.398438 13.78125 -43.703125 C 13.78125 -36.828125 14.6875 -30.695312 16.5 -25.3125 C 18.320312 -19.9375 20.722656 -15.382812 23.703125 -11.65625 C 26.691406 -7.9375 30.003906 -5.101562 33.640625 -3.15625 C 37.285156 -1.21875 40.96875 -0.25 44.6875 -0.25 C 48.414062 -0.25 52.117188 -1.257812 55.796875 -3.28125 C 59.484375 -5.3125 62.816406 -8.25 65.796875 -12.09375 C 68.773438 -15.945312 71.171875 -20.601562 72.984375 -26.0625 C 74.804688 -31.53125 75.71875 -37.695312 75.71875 -44.5625 C 75.71875 -51.269531 74.804688 -57.25 72.984375 -62.5 C 71.171875 -67.757812 68.773438 -72.164062 65.796875 -75.71875 C 62.816406 -79.28125 59.484375 -81.992188 55.796875 -83.859375 C 52.117188 -85.722656 48.414062 -86.65625 44.6875 -86.65625 Z M 44.6875 -86.65625 "/></g></g></g><g fill="#958a89" fill-opacity="1"><g transform="translate(1093.431916, 91.528172)"><g><path d="M 2.484375 0 L 1.234375 0 L 1.234375 -86.90625 L 11.171875 -86.90625 L 50.15625 -2.734375 L 50.15625 -86.90625 L 51.390625 -86.90625 L 51.390625 0 L 41.46875 0 L 2.484375 -84.171875 Z M 2.484375 0 "/></g></g></g></g></g></svg>
