<svg xmlns="http://www.w3.org/2000/svg" xmlns:xlink="http://www.w3.org/1999/xlink" width="1080" zoomAndPan="magnify" viewBox="0 0 810 809.999993" height="1080" preserveAspectRatio="xMidYMid meet" version="1.0"><defs><g/><clipPath id="528f3638a6"><path d="M 13.675781 13.5 L 624.59375 13.5 L 624.59375 743 L 13.675781 743 Z M 13.675781 13.5 " clip-rule="nonzero"/></clipPath><clipPath id="90f1bc24d8"><path d="M 541.207031 13.5 L 96.785156 13.5 C 96.785156 59.230469 59.804688 96.609375 13.675781 96.609375 L 13.675781 659.378906 C 59.40625 659.378906 96.785156 696.359375 96.785156 742.488281 L 541.207031 742.488281 C 541.207031 696.757812 578.1875 659.378906 624.316406 659.378906 L 624.316406 96.609375 C 578.585938 96.609375 541.207031 59.628906 541.207031 13.5 Z M 541.207031 13.5 " clip-rule="nonzero"/></clipPath><clipPath id="3bc72316d2"><path d="M 147 112 L 648.398438 112 L 648.398438 692 L 147 692 Z M 147 112 " clip-rule="nonzero"/></clipPath><clipPath id="c2e189bfff"><rect x="0" width="502" y="0" height="580"/></clipPath><clipPath id="e66d55f7c0"><rect x="0" width="343" y="0" height="94"/></clipPath><clipPath id="2ad6976765"><rect x="0" width="649" y="0" height="758"/></clipPath></defs><g transform="matrix(1, 0, 0, 1, 86, 27)"><g clip-path="url(#2ad6976765)"><g clip-path="url(#528f3638a6)"><g clip-path="url(#90f1bc24d8)"><path stroke-linecap="butt" transform="matrix(2.534926, 0, 0, 2.534926, 13.675936, 13.500018)" fill="none" stroke-linejoin="miter" d="M 208.105112 -0.00000708601 L 32.785657 -0.00000708601 C 32.785657 18.040151 18.197276 32.785711 -0.0000610177 32.785711 L -0.0000610177 254.791992 C 18.040097 254.791992 32.785657 269.380373 32.785657 287.57771 L 208.105112 287.57771 C 208.105112 269.537552 222.693493 254.791992 240.890831 254.791992 L 240.890831 32.785711 C 222.850673 32.785711 208.105112 18.19733 208.105112 -0.00000708601 Z M 208.105112 -0.00000708601 " stroke="#958a89" stroke-width="0.591733" stroke-opacity="1" stroke-miterlimit="4"/></g></g><g clip-path="url(#3bc72316d2)"><g transform="matrix(1, 0, 0, 1, 147, 112)"><g clip-path="url(#c2e189bfff)"><g fill="#fbd0cb" fill-opacity="1"><g transform="translate(6.943293, 422.526402)"><g><path d="M 11.5625 0 L 5.78125 0 L 5.78125 -404.875 L 52.0625 -404.875 L 164.265625 -165.421875 L 274.734375 -404.875 L 321 -404.875 L 321 0 L 274.734375 0 L 274.734375 -392.15625 L 146.90625 -116.25 L 141.125 -116.25 L 11.5625 -392.734375 Z M 11.5625 0 "/></g></g></g></g></g></g><g transform="matrix(1, 0, 0, 1, 153, 556)"><g clip-path="url(#e66d55f7c0)"><g fill="#958a89" fill-opacity="1"><g transform="translate(0.392286, 72.597258)"><g><path d="M 30.703125 0 L 5.265625 0 L 5.265625 -43.390625 L 11.34375 -43.390625 L 11.34375 -5.390625 L 30.703125 -5.390625 Z M 30.703125 0 "/></g></g></g><g fill="#958a89" fill-opacity="1"><g transform="translate(40.667635, 72.597258)"><g><path d="M 25.984375 1.109375 C 21.660156 1.109375 17.75 0.128906 14.25 -1.828125 C 10.757812 -3.796875 8.019531 -6.515625 6.03125 -9.984375 C 4.050781 -13.460938 3.0625 -17.390625 3.0625 -21.765625 C 3.0625 -26.210938 4.050781 -30.148438 6.03125 -33.578125 C 8.019531 -37.015625 10.75 -39.691406 14.21875 -41.609375 C 17.695312 -43.535156 21.617188 -44.5 25.984375 -44.5 C 30.359375 -44.5 34.300781 -43.535156 37.8125 -41.609375 C 41.332031 -39.691406 44.082031 -37.015625 46.0625 -33.578125 C 48.039062 -30.148438 49.03125 -26.210938 49.03125 -21.765625 C 49.03125 -17.390625 48.03125 -13.460938 46.03125 -9.984375 C 44.03125 -6.515625 41.28125 -3.796875 37.78125 -1.828125 C 34.289062 0.128906 30.359375 1.109375 25.984375 1.109375 Z M 25.984375 -4.359375 C 29.253906 -4.359375 32.132812 -5.125 34.625 -6.65625 C 37.125 -8.1875 39.054688 -10.28125 40.421875 -12.9375 C 41.796875 -15.59375 42.484375 -18.535156 42.484375 -21.765625 C 42.484375 -24.953125 41.804688 -27.875 40.453125 -30.53125 C 39.109375 -33.1875 37.175781 -35.289062 34.65625 -36.84375 C 32.144531 -38.394531 29.253906 -39.171875 25.984375 -39.171875 C 22.753906 -39.171875 19.894531 -38.394531 17.40625 -36.84375 C 14.914062 -35.289062 12.992188 -33.1875 11.640625 -30.53125 C 10.296875 -27.875 9.625 -24.953125 9.625 -21.765625 C 9.625 -18.535156 10.296875 -15.59375 11.640625 -12.9375 C 12.992188 -10.28125 14.914062 -8.1875 17.40625 -6.65625 C 19.894531 -5.125 22.753906 -4.359375 25.984375 -4.359375 Z M 25.984375 -4.359375 "/></g></g></g><g fill="#958a89" fill-opacity="1"><g transform="translate(103.502023, 72.597258)"><g><path d="M 11.34375 0 L 5.265625 0 L 5.265625 -43.390625 L 13.171875 -43.390625 L 35.859375 -8.703125 L 35.984375 -8.703125 L 35.984375 -43.390625 L 42.046875 -43.390625 L 42.046875 0 L 34.390625 0 L 11.46875 -35.421875 L 11.34375 -35.421875 Z M 11.34375 0 "/></g></g></g><g fill="#958a89" fill-opacity="1"><g transform="translate(161.616214, 72.597258)"><g><path d="M 5.265625 0 L 5.265625 -43.390625 L 20.171875 -43.390625 C 24.128906 -43.390625 27.882812 -42.613281 31.4375 -41.0625 C 35 -39.507812 37.910156 -37.109375 40.171875 -33.859375 C 42.441406 -30.617188 43.578125 -26.566406 43.578125 -21.703125 C 43.578125 -17.003906 42.441406 -13.019531 40.171875 -9.75 C 37.910156 -6.476562 34.976562 -4.035156 31.375 -2.421875 C 27.78125 -0.804688 24.046875 0 20.171875 0 Z M 18.9375 -5.328125 C 22.457031 -5.328125 25.582031 -5.976562 28.3125 -7.28125 C 31.050781 -8.59375 33.195312 -10.472656 34.75 -12.921875 C 36.300781 -15.378906 37.078125 -18.304688 37.078125 -21.703125 C 37.078125 -25.171875 36.300781 -28.140625 34.75 -30.609375 C 33.195312 -33.085938 31.0625 -34.957031 28.34375 -36.21875 C 25.632812 -37.488281 22.5 -38.125 18.9375 -38.125 L 11.34375 -38.125 L 11.34375 -5.328125 Z M 18.9375 -5.328125 "/></g></g></g><g fill="#958a89" fill-opacity="1"><g transform="translate(219.056069, 72.597258)"><g><path d="M 25.984375 1.109375 C 21.660156 1.109375 17.75 0.128906 14.25 -1.828125 C 10.757812 -3.796875 8.019531 -6.515625 6.03125 -9.984375 C 4.050781 -13.460938 3.0625 -17.390625 3.0625 -21.765625 C 3.0625 -26.210938 4.050781 -30.148438 6.03125 -33.578125 C 8.019531 -37.015625 10.75 -39.691406 14.21875 -41.609375 C 17.695312 -43.535156 21.617188 -44.5 25.984375 -44.5 C 30.359375 -44.5 34.300781 -43.535156 37.8125 -41.609375 C 41.332031 -39.691406 44.082031 -37.015625 46.0625 -33.578125 C 48.039062 -30.148438 49.03125 -26.210938 49.03125 -21.765625 C 49.03125 -17.390625 48.03125 -13.460938 46.03125 -9.984375 C 44.03125 -6.515625 41.28125 -3.796875 37.78125 -1.828125 C 34.289062 0.128906 30.359375 1.109375 25.984375 1.109375 Z M 25.984375 -4.359375 C 29.253906 -4.359375 32.132812 -5.125 34.625 -6.65625 C 37.125 -8.1875 39.054688 -10.28125 40.421875 -12.9375 C 41.796875 -15.59375 42.484375 -18.535156 42.484375 -21.765625 C 42.484375 -24.953125 41.804688 -27.875 40.453125 -30.53125 C 39.109375 -33.1875 37.175781 -35.289062 34.65625 -36.84375 C 32.144531 -38.394531 29.253906 -39.171875 25.984375 -39.171875 C 22.753906 -39.171875 19.894531 -38.394531 17.40625 -36.84375 C 14.914062 -35.289062 12.992188 -33.1875 11.640625 -30.53125 C 10.296875 -27.875 9.625 -24.953125 9.625 -21.765625 C 9.625 -18.535156 10.296875 -15.59375 11.640625 -12.9375 C 12.992188 -10.28125 14.914062 -8.1875 17.40625 -6.65625 C 19.894531 -5.125 22.753906 -4.359375 25.984375 -4.359375 Z M 25.984375 -4.359375 "/></g></g></g><g fill="#958a89" fill-opacity="1"><g transform="translate(281.890458, 72.597258)"><g><path d="M 11.34375 0 L 5.265625 0 L 5.265625 -43.390625 L 13.171875 -43.390625 L 35.859375 -8.703125 L 35.984375 -8.703125 L 35.984375 -43.390625 L 42.046875 -43.390625 L 42.046875 0 L 34.390625 0 L 11.46875 -35.421875 L 11.34375 -35.421875 Z M 11.34375 0 "/></g></g></g></g></g></g></g></svg>