<svg xmlns="http://www.w3.org/2000/svg" xmlns:xlink="http://www.w3.org/1999/xlink" width="1080" zoomAndPan="magnify" viewBox="0 0 810 809.999993" height="1080" preserveAspectRatio="xMidYMid meet" version="1.0"><defs><g/><clipPath id="d34031b4f3"><path d="M 118 118 L 692 118 L 692 692 L 118 692 Z M 118 118 " clip-rule="nonzero"/></clipPath><clipPath id="d7e949c5e3"><path d="M 162.222656 80.351562 L 729.347656 162.179688 L 647.519531 729.308594 L 80.390625 647.476562 Z M 162.222656 80.351562 " clip-rule="nonzero"/></clipPath><clipPath id="e88e17e0fa"><path d="M 162.222656 80.351562 L 729.347656 162.179688 L 647.519531 729.308594 L 80.390625 647.476562 Z M 162.222656 80.351562 " clip-rule="nonzero"/></clipPath><clipPath id="1fcf0ed8cf"><path d="M 236 237 L 574 237 L 574 574 L 236 574 Z M 236 237 " clip-rule="nonzero"/></clipPath><clipPath id="9a3e5b2c83"><path d="M 240.214844 233.664062 L 576.894531 240.59375 L 569.964844 577.269531 L 233.285156 570.34375 Z M 240.214844 233.664062 " clip-rule="nonzero"/></clipPath><clipPath id="a84b708dc6"><path d="M 240.214844 233.664062 L 576.789062 240.589844 L 569.863281 577.164062 L 233.289062 570.238281 Z M 240.214844 233.664062 " clip-rule="nonzero"/></clipPath><clipPath id="58b620c343"><path d="M 408.5 237.125 C 315.558594 235.214844 238.664062 309.007812 236.75 401.949219 C 234.839844 494.894531 308.632812 571.789062 401.574219 573.699219 C 494.515625 575.613281 571.414062 501.820312 573.324219 408.875 C 575.238281 315.933594 501.441406 239.039062 408.5 237.125 Z M 408.5 237.125 " clip-rule="nonzero"/></clipPath><clipPath id="8dccd66341"><path d="M 163 164 L 647 164 L 647 647 L 163 647 Z M 163 164 " clip-rule="nonzero"/></clipPath><clipPath id="765e41ec31"><path d="M 168.796875 159.246094 L 650.945312 169.167969 L 641.023438 651.316406 L 158.878906 641.394531 Z M 168.796875 159.246094 " clip-rule="nonzero"/></clipPath><clipPath id="704bf970bb"><path d="M 168.796875 159.246094 L 651.203125 169.171875 L 641.277344 651.578125 L 158.871094 641.652344 Z M 168.796875 159.246094 " clip-rule="nonzero"/></clipPath><clipPath id="a053728a47"><path d="M 410 164.210938 C 276.789062 161.46875 166.574219 267.238281 163.835938 400.449219 C 161.09375 533.664062 266.863281 643.875 400.074219 646.617188 C 533.289062 649.355469 643.5 543.589844 646.242188 410.375 C 648.980469 277.164062 543.214844 166.953125 410 164.210938 Z M 410 164.210938 " clip-rule="nonzero"/></clipPath><clipPath id="757ce8c624"><path d="M 194 398 L 209 398 L 209 413 L 194 413 Z M 194 398 " clip-rule="nonzero"/></clipPath><clipPath id="54cc365010"><path d="M 195.058594 398.636719 L 208.34375 398.910156 L 208.070312 412.195312 L 194.785156 411.921875 Z M 195.058594 398.636719 " clip-rule="nonzero"/></clipPath><clipPath id="6a36566214"><path d="M 201.699219 398.773438 C 198.03125 398.699219 194.996094 401.609375 194.921875 405.28125 C 194.84375 408.949219 197.757812 411.984375 201.425781 412.058594 C 205.097656 412.136719 208.132812 409.222656 208.207031 405.554688 C 208.28125 401.882812 205.371094 398.847656 201.699219 398.773438 Z M 201.699219 398.773438 " clip-rule="nonzero"/></clipPath><clipPath id="4cf3755910"><path d="M 0.640625 0.640625 L 14.320312 0.640625 L 14.320312 14.320312 L 0.640625 14.320312 Z M 0.640625 0.640625 " clip-rule="nonzero"/></clipPath><clipPath id="b78b6e226f"><path d="M 1.058594 0.636719 L 14.34375 0.910156 L 14.070312 14.195312 L 0.785156 13.921875 Z M 1.058594 0.636719 " clip-rule="nonzero"/></clipPath><clipPath id="d098c62664"><path d="M 7.699219 0.773438 C 4.03125 0.699219 0.996094 3.609375 0.921875 7.28125 C 0.84375 10.949219 3.757812 13.984375 7.425781 14.058594 C 11.097656 14.136719 14.132812 11.222656 14.207031 7.554688 C 14.28125 3.882812 11.371094 0.847656 7.699219 0.773438 Z M 7.699219 0.773438 " clip-rule="nonzero"/></clipPath><clipPath id="7b3ede303f"><rect x="0" width="15" y="0" height="15"/></clipPath><clipPath id="65ce2d8f04"><path d="M 602 398 L 617 398 L 617 413 L 602 413 Z M 602 398 " clip-rule="nonzero"/></clipPath><clipPath id="1bce983b9a"><path d="M 602.875 398.21875 L 616.164062 398.492188 L 615.878906 412.246094 L 602.59375 411.972656 Z M 602.875 398.21875 " clip-rule="nonzero"/></clipPath><clipPath id="33883ea4a3"><path d="M 609.519531 398.355469 C 605.851562 398.28125 602.8125 401.289062 602.734375 405.070312 C 602.65625 408.855469 605.570312 411.984375 609.238281 412.058594 C 612.90625 412.136719 615.945312 409.128906 616.023438 405.34375 C 616.101562 401.5625 613.1875 398.433594 609.519531 398.355469 Z M 609.519531 398.355469 " clip-rule="nonzero"/></clipPath><clipPath id="96830aa679"><path d="M 0.640625 0.160156 L 14.320312 0.160156 L 14.320312 14.320312 L 0.640625 14.320312 Z M 0.640625 0.160156 " clip-rule="nonzero"/></clipPath><clipPath id="cf13db8197"><path d="M 0.875 0.21875 L 14.164062 0.492188 L 13.878906 14.246094 L 0.59375 13.972656 Z M 0.875 0.21875 " clip-rule="nonzero"/></clipPath><clipPath id="23b49e06ae"><path d="M 7.519531 0.355469 C 3.851562 0.28125 0.8125 3.289062 0.734375 7.070312 C 0.65625 10.855469 3.570312 13.984375 7.238281 14.058594 C 10.90625 14.136719 13.945312 11.128906 14.023438 7.34375 C 14.101562 3.5625 11.1875 0.433594 7.519531 0.355469 Z M 7.519531 0.355469 " clip-rule="nonzero"/></clipPath><clipPath id="547f4caf1a"><rect x="0" width="15" y="0" height="15"/></clipPath><clipPath id="e5b5c05eda"><rect x="0" width="247" y="0" height="295"/></clipPath><clipPath id="8f7e1b4764"><rect x="0" width="345" y="0" height="123"/></clipPath><clipPath id="6ffaa16693"><path d="M 115.921875 115.921875 L 694.066406 115.921875 L 694.066406 694.066406 L 115.921875 694.066406 Z M 115.921875 115.921875 " clip-rule="nonzero"/></clipPath><clipPath id="52c258f087"><path d="M 404.996094 115.921875 C 245.34375 115.921875 115.921875 245.34375 115.921875 404.996094 C 115.921875 564.644531 245.34375 694.066406 404.996094 694.066406 C 564.644531 694.066406 694.066406 564.644531 694.066406 404.996094 C 694.066406 245.34375 564.644531 115.921875 404.996094 115.921875 Z M 404.996094 115.921875 " clip-rule="nonzero"/></clipPath><clipPath id="bb849b5ed3"><rect x="0" width="342" y="0" height="124"/></clipPath></defs><g clip-path="url(#d34031b4f3)"><g clip-path="url(#d7e949c5e3)"><g clip-path="url(#e88e17e0fa)"><path fill="#ffffff" d="M 688.703125 445.929688 C 688.03125 450.574219 687.25 455.199219 686.351562 459.800781 C 685.457031 464.40625 684.445312 468.988281 683.324219 473.542969 C 682.203125 478.097656 680.96875 482.621094 679.625 487.117188 C 678.28125 491.609375 676.828125 496.070312 675.265625 500.492188 C 673.703125 504.917969 672.03125 509.296875 670.253906 513.640625 C 668.476562 517.980469 666.59375 522.277344 664.605469 526.523438 C 662.613281 530.773438 660.523438 534.96875 658.328125 539.117188 C 656.132812 543.261719 653.835938 547.351562 651.441406 551.386719 C 649.046875 555.417969 646.550781 559.390625 643.960938 563.300781 C 641.371094 567.210938 638.6875 571.058594 635.90625 574.835938 C 633.125 578.617188 630.257812 582.324219 627.292969 585.960938 C 624.332031 589.601562 621.285156 593.164062 618.148438 596.652344 C 615.011719 600.140625 611.789062 603.550781 608.484375 606.878906 C 605.183594 610.210938 601.796875 613.457031 598.335938 616.621094 C 594.871094 619.785156 591.332031 622.863281 587.71875 625.851562 C 584.101562 628.84375 580.417969 631.742188 576.660156 634.554688 C 572.902344 637.363281 569.082031 640.078125 565.191406 642.699219 C 561.300781 645.320312 557.347656 647.847656 553.332031 650.273438 C 549.320312 652.703125 545.246094 655.027344 541.121094 657.257812 C 536.992188 659.484375 532.808594 661.609375 528.578125 663.632812 C 524.34375 665.65625 520.066406 667.574219 515.738281 669.382812 C 511.410156 671.195312 507.042969 672.902344 502.632812 674.5 C 498.222656 676.097656 493.773438 677.585938 489.289062 678.964844 C 484.804688 680.347656 480.292969 681.613281 475.746094 682.773438 C 471.199219 683.929688 466.628906 684.976562 462.03125 685.910156 C 457.433594 686.84375 452.816406 687.664062 448.175781 688.371094 C 443.539062 689.078125 438.886719 689.667969 434.222656 690.148438 C 429.554688 690.625 424.878906 690.988281 420.195312 691.238281 C 415.507812 691.488281 410.820312 691.621094 406.128906 691.640625 C 401.441406 691.65625 396.75 691.5625 392.0625 691.347656 C 387.378906 691.136719 382.699219 690.8125 378.027344 690.371094 C 373.359375 689.929688 368.703125 689.375 364.058594 688.703125 C 359.414062 688.035156 354.792969 687.25 350.1875 686.351562 C 345.582031 685.457031 341.003906 684.445312 336.449219 683.324219 C 331.894531 682.203125 327.367188 680.96875 322.875 679.625 C 318.378906 678.28125 313.917969 676.828125 309.496094 675.265625 C 305.074219 673.703125 300.691406 672.03125 296.351562 670.253906 C 292.007812 668.476562 287.714844 666.59375 283.464844 664.605469 C 279.214844 662.613281 275.019531 660.523438 270.875 658.328125 C 266.726562 656.132812 262.636719 653.835938 258.605469 651.441406 C 254.570312 649.046875 250.597656 646.550781 246.6875 643.960938 C 242.777344 641.371094 238.933594 638.6875 235.152344 635.90625 C 231.375 633.125 227.664062 630.257812 224.027344 627.292969 C 220.390625 624.332031 216.824219 621.285156 213.335938 618.148438 C 209.847656 615.011719 206.441406 611.789062 203.109375 608.484375 C 199.78125 605.183594 196.53125 601.796875 193.367188 598.335938 C 190.203125 594.871094 187.125 591.332031 184.136719 587.71875 C 181.144531 584.105469 178.246094 580.417969 175.4375 576.660156 C 172.628906 572.902344 169.910156 569.082031 167.289062 565.191406 C 164.667969 561.300781 162.144531 557.347656 159.714844 553.332031 C 157.289062 549.320312 154.960938 545.25 152.730469 541.121094 C 150.503906 536.992188 148.378906 532.8125 146.355469 528.578125 C 144.335938 524.34375 142.417969 520.066406 140.605469 515.738281 C 138.792969 511.410156 137.085938 507.042969 135.488281 502.632812 C 133.890625 498.222656 132.402344 493.773438 131.023438 489.289062 C 129.644531 484.804688 128.375 480.292969 127.214844 475.746094 C 126.058594 471.199219 125.011719 466.628906 124.078125 462.03125 C 123.144531 457.433594 122.328125 452.816406 121.621094 448.179688 C 120.914062 443.539062 120.320312 438.886719 119.84375 434.222656 C 119.363281 429.554688 119 424.878906 118.75 420.195312 C 118.503906 415.507812 118.367188 410.820312 118.351562 406.128906 C 118.332031 401.441406 118.429688 396.75 118.640625 392.0625 C 118.851562 387.378906 119.179688 382.699219 119.621094 378.027344 C 120.0625 373.359375 120.617188 368.703125 121.285156 364.058594 C 121.957031 359.414062 122.738281 354.792969 123.636719 350.1875 C 124.535156 345.582031 125.542969 341.003906 126.664062 336.449219 C 127.785156 331.894531 129.019531 327.367188 130.363281 322.875 C 131.707031 318.378906 133.160156 313.917969 134.722656 309.496094 C 136.285156 305.074219 137.957031 300.691406 139.734375 296.351562 C 141.511719 292.007812 143.398438 287.714844 145.386719 283.464844 C 147.375 279.214844 149.464844 275.019531 151.660156 270.875 C 153.855469 266.726562 156.152344 262.636719 158.546875 258.605469 C 160.945312 254.570312 163.4375 250.597656 166.027344 246.6875 C 168.617188 242.777344 171.304688 238.933594 174.082031 235.152344 C 176.863281 231.375 179.734375 227.664062 182.695312 224.027344 C 185.65625 220.390625 188.707031 216.828125 191.84375 213.339844 C 194.980469 209.847656 198.199219 206.441406 201.503906 203.109375 C 204.808594 199.78125 208.191406 196.53125 211.65625 193.367188 C 215.117188 190.203125 218.65625 187.125 222.269531 184.136719 C 225.886719 181.144531 229.570312 178.246094 233.328125 175.4375 C 237.085938 172.628906 240.910156 169.910156 244.800781 167.289062 C 248.691406 164.667969 252.640625 162.144531 256.65625 159.714844 C 260.671875 157.289062 264.742188 154.960938 268.871094 152.734375 C 273 150.503906 277.179688 148.378906 281.410156 146.355469 C 285.644531 144.335938 289.925781 142.417969 294.25 140.605469 C 298.578125 138.792969 302.945312 137.085938 307.359375 135.488281 C 311.769531 133.890625 316.214844 132.402344 320.699219 131.023438 C 325.183594 129.644531 329.699219 128.375 334.242188 127.21875 C 338.789062 126.058594 343.363281 125.011719 347.957031 124.078125 C 352.554688 123.148438 357.175781 122.328125 361.8125 121.621094 C 366.449219 120.914062 371.101562 120.320312 375.769531 119.84375 C 380.433594 119.363281 385.109375 119 389.796875 118.75 C 394.480469 118.503906 399.167969 118.371094 403.859375 118.351562 C 408.550781 118.332031 413.238281 118.429688 417.925781 118.640625 C 422.613281 118.851562 427.289062 119.179688 431.960938 119.621094 C 436.628906 120.0625 441.289062 120.617188 445.929688 121.285156 C 450.574219 121.957031 455.199219 122.738281 459.800781 123.636719 C 464.40625 124.535156 468.988281 125.542969 473.542969 126.664062 C 478.097656 127.785156 482.621094 129.019531 487.117188 130.363281 C 491.609375 131.707031 496.070312 133.160156 500.492188 134.722656 C 504.914062 136.285156 509.296875 137.957031 513.640625 139.734375 C 517.980469 141.511719 522.277344 143.398438 526.523438 145.386719 C 530.773438 147.375 534.96875 149.464844 539.117188 151.660156 C 543.261719 153.855469 547.351562 156.152344 551.386719 158.546875 C 555.417969 160.945312 559.390625 163.4375 563.300781 166.027344 C 567.210938 168.617188 571.058594 171.304688 574.835938 174.082031 C 578.613281 176.863281 582.324219 179.734375 585.960938 182.695312 C 589.601562 185.65625 593.164062 188.707031 596.652344 191.84375 C 600.140625 194.980469 603.550781 198.199219 606.878906 201.503906 C 610.210938 204.808594 613.457031 208.191406 616.621094 211.65625 C 619.785156 215.117188 622.863281 218.65625 625.851562 222.273438 C 628.84375 225.886719 631.742188 229.570312 634.554688 233.328125 C 637.363281 237.085938 640.078125 240.910156 642.699219 244.800781 C 645.320312 248.691406 647.847656 252.640625 650.273438 256.65625 C 652.703125 260.671875 655.027344 264.742188 657.257812 268.871094 C 659.484375 273 661.609375 277.179688 663.632812 281.410156 C 665.65625 285.644531 667.574219 289.925781 669.382812 294.25 C 671.195312 298.578125 672.902344 302.945312 674.5 307.359375 C 676.097656 311.769531 677.585938 316.214844 678.964844 320.699219 C 680.347656 325.183594 681.613281 329.699219 682.773438 334.242188 C 683.929688 338.789062 684.976562 343.363281 685.910156 347.960938 C 686.84375 352.554688 687.664062 357.175781 688.371094 361.8125 C 689.078125 366.449219 689.667969 371.101562 690.148438 375.769531 C 690.625 380.433594 690.988281 385.109375 691.238281 389.796875 C 691.488281 394.480469 691.621094 399.167969 691.640625 403.859375 C 691.65625 408.550781 691.5625 413.238281 691.347656 417.925781 C 691.136719 422.613281 690.8125 427.289062 690.371094 431.960938 C 689.929688 436.628906 689.371094 441.289062 688.703125 445.929688 Z M 688.703125 445.929688 " fill-opacity="1" fill-rule="nonzero"/></g></g></g><g clip-path="url(#1fcf0ed8cf)"><g clip-path="url(#9a3e5b2c83)"><g clip-path="url(#a84b708dc6)"><g clip-path="url(#58b620c343)"><path stroke-linecap="butt" transform="matrix(0.749841, 0.015429, -0.015429, 0.749841, 240.214136, 233.664193)" fill="none" stroke-linejoin="miter" d="M 224.428575 -0.00252591 C 100.480542 0.000453146 0.000293023 100.479408 -0.00193516 224.427549 C 0.00115104 348.38079 100.480106 448.861038 224.42814 448.858059 C 348.37628 448.860287 448.861736 348.381225 448.85865 224.427984 C 448.860878 100.479844 348.376716 -0.000297727 224.428575 -0.00252591 Z M 224.428575 -0.00252591 " stroke="#e6cccb" stroke-width="2" stroke-opacity="1" stroke-miterlimit="4"/></g></g></g></g><g clip-path="url(#8dccd66341)"><g clip-path="url(#765e41ec31)"><g clip-path="url(#704bf970bb)"><g clip-path="url(#a053728a47)"><path stroke-linecap="butt" transform="matrix(0.749841, 0.015429, -0.015429, 0.749841, 168.797808, 159.247176)" fill="none" stroke-linejoin="miter" d="M 321.670988 0.000948367 C 144.018792 -0.000649299 -0.00204096 144.018648 0.00156861 321.670737 C 0.000078085 499.328141 144.019268 643.343766 321.671464 643.345364 C 499.328761 643.341647 643.344494 499.327664 643.345984 321.670261 C 643.342375 144.018171 499.328392 0.00243889 321.670988 0.000948367 Z M 321.670988 0.000948367 " stroke="#958a89" stroke-width="2" stroke-opacity="1" stroke-miterlimit="4"/></g></g></g></g><g clip-path="url(#757ce8c624)"><g clip-path="url(#54cc365010)"><g clip-path="url(#6a36566214)"><g transform="matrix(1, 0, 0, 1, 194, 398)"><g clip-path="url(#7b3ede303f)"><g clip-path="url(#4cf3755910)"><g clip-path="url(#b78b6e226f)"><g clip-path="url(#d098c62664)"><path fill="#958a89" d="M 1.058594 0.636719 L 14.34375 0.910156 L 14.070312 14.195312 L 0.785156 13.921875 Z M 1.058594 0.636719 " fill-opacity="1" fill-rule="nonzero"/></g></g></g></g></g></g></g></g><g clip-path="url(#65ce2d8f04)"><g clip-path="url(#1bce983b9a)"><g clip-path="url(#33883ea4a3)"><g transform="matrix(1, 0, 0, 1, 602, 398)"><g clip-path="url(#547f4caf1a)"><g clip-path="url(#96830aa679)"><g clip-path="url(#cf13db8197)"><g clip-path="url(#23b49e06ae)"><path fill="#958a89" d="M 0.875 0.21875 L 14.164062 0.492188 L 13.882812 14.195312 L 0.59375 13.921875 Z M 0.875 0.21875 " fill-opacity="1" fill-rule="nonzero"/></g></g></g></g></g></g></g></g><g transform="matrix(1, 0, 0, 1, 320, 286)"><g clip-path="url(#e5b5c05eda)"><g fill="#958a89" fill-opacity="1"><g transform="translate(0.236101, 214.94521)"><g><path d="M 5.890625 0 L 2.9375 0 L 2.9375 -206 L 26.484375 -206 L 83.578125 -84.171875 L 139.78125 -206 L 163.328125 -206 L 163.328125 0 L 139.78125 0 L 139.78125 -199.515625 L 74.75 -59.15625 L 71.796875 -59.15625 L 5.890625 -199.8125 Z M 5.890625 0 "/></g></g></g></g></g><g transform="matrix(1, 0, 0, 1, 236, 166)"><g clip-path="url(#8f7e1b4764)"><g fill="#958a89" fill-opacity="1"><g transform="translate(35.938979, 109.656276)"><g><path d="M 16.765625 -15 L 2.875 -2.578125 L -18.3125 -26.28125 L -14.984375 -29.25 L 3.5625 -8.5 L 14.125 -17.953125 Z M 16.765625 -15 "/></g></g></g><g fill="#958a89" fill-opacity="1"><g transform="translate(69.307511, 82.099078)"><g><path d="M 17.390625 -7.78125 C 14.546875 -6.363281 11.65625 -5.722656 8.71875 -5.859375 C 5.789062 -6.003906 3.109375 -6.890625 0.671875 -8.515625 C -1.753906 -10.148438 -3.679688 -12.394531 -5.109375 -15.25 C -6.578125 -18.175781 -7.222656 -21.085938 -7.046875 -23.984375 C -6.878906 -26.878906 -5.96875 -29.523438 -4.3125 -31.921875 C -2.664062 -34.328125 -0.410156 -36.25 2.453125 -37.6875 C 5.316406 -39.113281 8.210938 -39.769531 11.140625 -39.65625 C 14.078125 -39.539062 16.753906 -38.6875 19.171875 -37.09375 C 21.585938 -35.5 23.53125 -33.238281 25 -30.3125 C 26.425781 -27.457031 27.054688 -24.5625 26.890625 -21.625 C 26.722656 -18.695312 25.8125 -16.015625 24.15625 -13.578125 C 22.507812 -11.140625 20.253906 -9.207031 17.390625 -7.78125 Z M 15.609375 -11.359375 C 17.742188 -12.429688 19.375 -13.878906 20.5 -15.703125 C 21.632812 -17.535156 22.21875 -19.539062 22.25 -21.71875 C 22.28125 -23.90625 21.769531 -26.054688 20.71875 -28.171875 C 19.675781 -30.265625 18.273438 -31.957031 16.515625 -33.25 C 14.753906 -34.550781 12.796875 -35.296875 10.640625 -35.484375 C 8.484375 -35.679688 6.335938 -35.242188 4.203125 -34.171875 C 2.085938 -33.117188 0.46875 -31.675781 -0.65625 -29.84375 C -1.789062 -28.007812 -2.363281 -26 -2.375 -23.8125 C -2.382812 -21.632812 -1.867188 -19.5 -0.828125 -17.40625 C 0.222656 -15.289062 1.625 -13.585938 3.375 -12.296875 C 5.132812 -11.003906 7.082031 -10.257812 9.21875 -10.0625 C 11.363281 -9.875 13.492188 -10.304688 15.609375 -11.359375 Z M 15.609375 -11.359375 "/></g></g></g><g fill="#958a89" fill-opacity="1"><g transform="translate(122.402038, 59.077875)"><g><path d="M 8.1875 -1.40625 L 3.796875 -0.65625 L -1.578125 -32 L 4.140625 -32.96875 L 24.8125 -10.71875 L 24.90625 -10.734375 L 20.609375 -35.796875 L 25 -36.546875 L 30.375 -5.203125 L 24.828125 -4.25 L 3.875 -27 L 3.796875 -26.984375 Z M 8.1875 -1.40625 "/></g></g></g><g fill="#958a89" fill-opacity="1"><g transform="translate(176.619511, 52.703942)"><g><path d="M 3.828125 0.4375 L 7.46875 -31.15625 L 18.328125 -29.90625 C 21.203125 -29.570312 23.867188 -28.6875 26.328125 -27.25 C 28.785156 -25.820312 30.703125 -23.828125 32.078125 -21.265625 C 33.460938 -18.710938 33.945312 -15.664062 33.53125 -12.125 C 33.144531 -8.707031 31.988281 -5.90625 30.0625 -3.71875 C 28.132812 -1.539062 25.796875 -0.015625 23.046875 0.859375 C 20.296875 1.742188 17.507812 2.019531 14.6875 1.6875 Z M 14.234375 -2.28125 C 16.796875 -1.988281 19.125 -2.203125 21.21875 -2.921875 C 23.320312 -3.648438 25.039062 -4.84375 26.375 -6.5 C 27.71875 -8.15625 28.53125 -10.210938 28.8125 -12.671875 C 29.113281 -15.210938 28.796875 -17.441406 27.859375 -19.359375 C 26.929688 -21.285156 25.53125 -22.828125 23.65625 -23.984375 C 21.789062 -25.140625 19.566406 -25.863281 16.984375 -26.15625 L 11.453125 -26.796875 L 8.703125 -2.921875 Z M 14.234375 -2.28125 "/></g></g></g><g fill="#958a89" fill-opacity="1"><g transform="translate(229.894011, 61.479257)"><g><path d="M 17.15625 8.296875 C 14.238281 7.035156 11.890625 5.234375 10.109375 2.890625 C 8.328125 0.554688 7.273438 -2.0625 6.953125 -4.96875 C 6.640625 -7.882812 7.113281 -10.804688 8.375 -13.734375 C 9.675781 -16.742188 11.488281 -19.113281 13.8125 -20.84375 C 16.132812 -22.570312 18.742188 -23.578125 21.640625 -23.859375 C 24.535156 -24.148438 27.457031 -23.660156 30.40625 -22.390625 C 33.34375 -21.117188 35.710938 -19.320312 37.515625 -17 C 39.328125 -14.6875 40.398438 -12.09375 40.734375 -9.21875 C 41.078125 -6.34375 40.597656 -3.398438 39.296875 -0.390625 C 38.035156 2.535156 36.226562 4.878906 33.875 6.640625 C 31.519531 8.398438 28.878906 9.429688 25.953125 9.734375 C 23.023438 10.046875 20.09375 9.566406 17.15625 8.296875 Z M 18.75 4.625 C 20.9375 5.570312 23.09375 5.890625 25.21875 5.578125 C 27.34375 5.265625 29.25 4.414062 30.9375 3.03125 C 32.632812 1.65625 33.953125 -0.113281 34.890625 -2.28125 C 35.816406 -4.425781 36.207031 -6.585938 36.0625 -8.765625 C 35.925781 -10.953125 35.238281 -12.929688 34 -14.703125 C 32.757812 -16.484375 31.046875 -17.847656 28.859375 -18.796875 C 26.691406 -19.734375 24.539062 -20.039062 22.40625 -19.71875 C 20.269531 -19.394531 18.363281 -18.535156 16.6875 -17.140625 C 15.007812 -15.742188 13.707031 -13.972656 12.78125 -11.828125 C 11.84375 -9.660156 11.441406 -7.488281 11.578125 -5.3125 C 11.710938 -3.144531 12.398438 -1.179688 13.640625 0.578125 C 14.878906 2.335938 16.582031 3.6875 18.75 4.625 Z M 18.75 4.625 "/></g></g></g><g fill="#958a89" fill-opacity="1"><g transform="translate(281.687103, 87.300127)"><g><path d="M 6.34375 5.359375 L 2.953125 2.484375 L 23.46875 -21.796875 L 27.890625 -18.046875 L 24.171875 12.078125 L 24.25 12.140625 L 40.65625 -7.265625 L 44.046875 -4.390625 L 23.53125 19.890625 L 19.234375 16.25 L 23.15625 -14.40625 L 23.09375 -14.46875 Z M 6.34375 5.359375 "/></g></g></g></g></g><g clip-path="url(#6ffaa16693)"><g clip-path="url(#52c258f087)"><path stroke-linecap="butt" transform="matrix(0.75, 0, 0, 0.75, 115.92204, 115.922057)" fill="none" stroke-linejoin="miter" d="M 385.432116 -0.000242091 C 172.5623 -0.000242091 -0.000220091 172.562278 -0.000220091 385.432094 C -0.000220091 598.296701 172.5623 770.859221 385.432116 770.859221 C 598.296723 770.859221 770.859243 598.296701 770.859243 385.432094 C 770.859243 172.562278 598.296723 -0.000242091 385.432116 -0.000242091 Z M 385.432116 -0.000242091 " stroke="#958a89" stroke-width="2" stroke-opacity="1" stroke-miterlimit="4"/></g></g><g transform="matrix(1, 0, 0, 1, 235, 520)"><g clip-path="url(#bb849b5ed3)"><g fill="#958a89" fill-opacity="1"><g transform="translate(11.221996, 41.361762)"><g><path d="M 16.515625 15.28125 L 2.828125 2.625 L 24.40625 -20.71875 L 27.6875 -17.703125 L 8.796875 2.734375 L 19.203125 12.375 Z M 16.515625 15.28125 "/></g></g></g><g fill="#958a89" fill-opacity="1"><g transform="translate(52.056117, 74.965096)"><g><path d="M 16.5625 9.421875 C 13.738281 7.960938 11.515625 6.007812 9.890625 3.5625 C 8.265625 1.125 7.390625 -1.554688 7.265625 -4.484375 C 7.148438 -7.410156 7.820312 -10.296875 9.28125 -13.140625 C 10.769531 -16.054688 12.726562 -18.300781 15.15625 -19.875 C 17.59375 -21.445312 20.265625 -22.28125 23.171875 -22.375 C 26.085938 -22.46875 28.972656 -21.78125 31.828125 -20.3125 C 34.679688 -18.851562 36.925781 -16.910156 38.5625 -14.484375 C 40.207031 -12.054688 41.101562 -9.390625 41.25 -6.484375 C 41.394531 -3.585938 40.722656 -0.679688 39.234375 2.234375 C 37.773438 5.078125 35.8125 7.296875 33.34375 8.890625 C 30.875 10.492188 28.171875 11.347656 25.234375 11.453125 C 22.304688 11.554688 19.414062 10.878906 16.5625 9.421875 Z M 18.390625 5.875 C 20.515625 6.957031 22.644531 7.414062 24.78125 7.25 C 26.925781 7.082031 28.890625 6.363281 30.671875 5.09375 C 32.453125 3.832031 33.882812 2.148438 34.96875 0.046875 C 36.03125 -2.035156 36.566406 -4.164062 36.578125 -6.34375 C 36.585938 -8.53125 36.03125 -10.550781 34.90625 -12.40625 C 33.78125 -14.257812 32.15625 -15.726562 30.03125 -16.8125 C 27.9375 -17.894531 25.816406 -18.347656 23.671875 -18.171875 C 21.523438 -17.992188 19.566406 -17.265625 17.796875 -15.984375 C 16.023438 -14.710938 14.609375 -13.035156 13.546875 -10.953125 C 12.460938 -8.847656 11.914062 -6.707031 11.90625 -4.53125 C 11.90625 -2.351562 12.460938 -0.347656 13.578125 1.484375 C 14.691406 3.328125 16.296875 4.789062 18.390625 5.875 Z M 18.390625 5.875 "/></g></g></g><g fill="#958a89" fill-opacity="1"><g transform="translate(115.02966, 101.873011)"><g><path d="M 8.1875 1.4375 L 3.796875 0.671875 L 9.28125 -30.640625 L 15 -29.640625 L 26.96875 -1.75 L 27.0625 -1.734375 L 31.453125 -26.765625 L 35.828125 -25.984375 L 30.34375 5.328125 L 24.8125 4.34375 L 12.75 -24.109375 L 12.671875 -24.125 Z M 8.1875 1.4375 "/></g></g></g><g fill="#958a89" fill-opacity="1"><g transform="translate(179.535772, 108.677614)"><g><path d="M 3.828125 -0.453125 L 0.109375 -32.03125 L 10.953125 -33.3125 C 13.835938 -33.644531 16.632812 -33.394531 19.34375 -32.5625 C 22.0625 -31.738281 24.382812 -30.242188 26.3125 -28.078125 C 28.25 -25.910156 29.425781 -23.054688 29.84375 -19.515625 C 30.25 -16.097656 29.765625 -13.101562 28.390625 -10.53125 C 27.015625 -7.957031 25.09375 -5.929688 22.625 -4.453125 C 20.15625 -2.972656 17.503906 -2.066406 14.671875 -1.734375 Z M 13.328125 -5.5 C 15.878906 -5.800781 18.09375 -6.546875 19.96875 -7.734375 C 21.851562 -8.921875 23.253906 -10.472656 24.171875 -12.390625 C 25.097656 -14.316406 25.414062 -16.507812 25.125 -18.96875 C 24.820312 -21.5 24 -23.59375 22.65625 -25.25 C 21.320312 -26.914062 19.609375 -28.09375 17.515625 -28.78125 C 15.429688 -29.476562 13.097656 -29.675781 10.515625 -29.375 L 4.984375 -28.71875 L 7.796875 -4.84375 Z M 13.328125 -5.5 "/></g></g></g><g fill="#958a89" fill-opacity="1"><g transform="translate(243.014972, 96.906257)"><g><path d="M 17.75 -6.96875 C 14.84375 -5.675781 11.925781 -5.171875 9 -5.453125 C 6.070312 -5.734375 3.429688 -6.742188 1.078125 -8.484375 C -1.273438 -10.222656 -3.097656 -12.554688 -4.390625 -15.484375 C -5.710938 -18.472656 -6.21875 -21.40625 -5.90625 -24.28125 C -5.601562 -27.164062 -4.570312 -29.769531 -2.8125 -32.09375 C -1.0625 -34.414062 1.28125 -36.226562 4.21875 -37.53125 C 7.132812 -38.820312 10.054688 -39.34375 12.984375 -39.09375 C 15.910156 -38.84375 18.546875 -37.863281 20.890625 -36.15625 C 23.234375 -34.457031 25.066406 -32.113281 26.390625 -29.125 C 27.679688 -26.195312 28.171875 -23.269531 27.859375 -20.34375 C 27.554688 -17.425781 26.523438 -14.789062 24.765625 -12.4375 C 23.003906 -10.082031 20.664062 -8.257812 17.75 -6.96875 Z M 16.125 -10.640625 C 18.300781 -11.597656 20 -12.957031 21.21875 -14.71875 C 22.4375 -16.488281 23.109375 -18.46875 23.234375 -20.65625 C 23.367188 -22.84375 22.957031 -25.019531 22 -27.1875 C 21.050781 -29.3125 19.734375 -31.0625 18.046875 -32.4375 C 16.359375 -33.820312 14.441406 -34.660156 12.296875 -34.953125 C 10.148438 -35.242188 7.988281 -34.910156 5.8125 -33.953125 C 3.644531 -32.992188 1.953125 -31.625 0.734375 -29.84375 C -0.472656 -28.0625 -1.132812 -26.078125 -1.25 -23.890625 C -1.375 -21.710938 -0.960938 -19.5625 -0.015625 -17.4375 C 0.941406 -15.269531 2.265625 -13.5 3.953125 -12.125 C 5.648438 -10.75 7.5625 -9.914062 9.6875 -9.625 C 11.8125 -9.34375 13.957031 -9.679688 16.125 -10.640625 Z M 16.125 -10.640625 "/></g></g></g><g fill="#958a89" fill-opacity="1"><g transform="translate(303.512892, 64.816408)"><g><path d="M 6.265625 -5.46875 L 2.90625 -2.53125 L -18 -26.484375 L -13.625 -30.296875 L 15.59375 -22.0625 L 15.671875 -22.125 L -1.046875 -41.28125 L 2.3125 -44.21875 L 23.21875 -20.265625 L 18.984375 -16.5625 L -10.734375 -25.0625 L -10.796875 -25.015625 Z M 6.265625 -5.46875 "/></g></g></g></g></g></svg>