<svg xmlns="http://www.w3.org/2000/svg" xmlns:xlink="http://www.w3.org/1999/xlink" viewBox="21 142 643 118" preserveAspectRatio="xMidYMid meet" role="presentation" focusable="false"><defs><g/><clipPath id="048a506bd7"><path d="M 21 142 L 663.6875 142 L 663.6875 301 L 21 301 Z M 21 142 " clip-rule="nonzero"/></clipPath><clipPath id="a25e57a99e"><rect x="0" width="643" y="0" height="159"/></clipPath></defs><g clip-path="url(#048a506bd7)"><g transform="matrix(1, 0, 0, 1, 21, 142)"><g clip-path="url(#a25e57a99e)"><g fill="#958a89" fill-opacity="1"><g transform="translate(0.314644, 115.534287)"><g><path d="M 3.15625 0 L 1.578125 0 L 1.578125 -110.515625 L 14.203125 -110.515625 L 44.84375 -45.15625 L 75 -110.515625 L 87.625 -110.515625 L 87.625 0 L 75 0 L 75 -107.046875 L 40.109375 -31.734375 L 38.53125 -31.734375 L 3.15625 -107.203125 Z M 3.15625 0 "/></g></g></g><g fill="#958a89" fill-opacity="1"><g transform="translate(132.3089, 115.534287)"><g><path d="M 34.109375 -100.265625 L 20.53125 -56.046875 L 47.6875 -56.046875 Z M 77.6875 0 L 65.046875 0 L 48.3125 -54.46875 L 19.890625 -54.46875 L 3.15625 0 L 1.578125 0 L 33.3125 -102.78125 L 30.953125 -110.515625 L 43.578125 -110.515625 Z M 77.6875 0 "/></g></g></g><g fill="#958a89" fill-opacity="1"><g transform="translate(253.567725, 115.534287)"><g><path d="M 3.15625 0 L 3.15625 -110.515625 L 15.78125 -110.515625 L 15.78125 -1.734375 L 58.421875 -3.15625 L 58.421875 0 Z M 3.15625 0 "/></g></g></g><g fill="#958a89" fill-opacity="1"><g transform="translate(347.670728, 115.534287)"><g><path d="M 56.84375 -112.109375 C 63.363281 -112.109375 69.859375 -110.816406 76.328125 -108.234375 C 82.804688 -105.648438 88.703125 -101.882812 94.015625 -96.9375 C 99.335938 -92 103.578125 -86.054688 106.734375 -79.109375 C 109.890625 -72.160156 111.46875 -64.265625 111.46875 -55.421875 C 111.46875 -46.578125 109.890625 -38.628906 106.734375 -31.578125 C 103.578125 -24.523438 99.335938 -18.523438 94.015625 -13.578125 C 88.703125 -8.628906 82.804688 -4.863281 76.328125 -2.28125 C 69.859375 0.289062 63.363281 1.578125 56.84375 1.578125 C 50.3125 1.578125 43.832031 0.289062 37.40625 -2.28125 C 30.988281 -4.863281 25.125 -8.628906 19.8125 -13.578125 C 14.5 -18.523438 10.265625 -24.523438 7.109375 -31.578125 C 3.953125 -38.628906 2.375 -46.578125 2.375 -55.421875 C 2.375 -64.265625 3.953125 -72.160156 7.109375 -79.109375 C 10.265625 -86.054688 14.5 -92 19.8125 -96.9375 C 25.125 -101.882812 30.988281 -105.648438 37.40625 -108.234375 C 43.832031 -110.816406 50.3125 -112.109375 56.84375 -112.109375 Z M 56.84375 -110.203125 C 52.101562 -110.203125 47.414062 -108.960938 42.78125 -106.484375 C 38.15625 -104.015625 33.945312 -100.4375 30.15625 -95.75 C 26.363281 -91.070312 23.3125 -85.335938 21 -78.546875 C 18.6875 -71.753906 17.53125 -64.097656 17.53125 -55.578125 C 17.53125 -46.835938 18.6875 -39.046875 21 -32.203125 C 23.3125 -25.367188 26.363281 -19.582031 30.15625 -14.84375 C 33.945312 -10.101562 38.15625 -6.492188 42.78125 -4.015625 C 47.414062 -1.546875 52.101562 -0.3125 56.84375 -0.3125 C 61.582031 -0.3125 66.289062 -1.597656 70.96875 -4.171875 C 75.65625 -6.753906 79.890625 -10.492188 83.671875 -15.390625 C 87.460938 -20.285156 90.515625 -26.207031 92.828125 -33.15625 C 95.148438 -40.101562 96.3125 -47.945312 96.3125 -56.6875 C 96.3125 -65.207031 95.148438 -72.8125 92.828125 -79.5 C 90.515625 -86.1875 87.460938 -91.789062 83.671875 -96.3125 C 79.890625 -100.84375 75.65625 -104.289062 70.96875 -106.65625 C 66.289062 -109.019531 61.582031 -110.203125 56.84375 -110.203125 Z M 56.84375 -110.203125 "/></g></g></g><g fill="#958a89" fill-opacity="1"><g transform="translate(498.7671, 115.534287)"><g><path d="M 14.203125 -110.515625 L 38.53125 -11.53125 L 60.625 -99.15625 L 57.78125 -110.515625 L 70.421875 -110.515625 L 94.734375 -11.53125 L 119.6875 -110.515625 L 121.265625 -110.515625 L 93.46875 0 L 85.578125 0 L 61.421875 -96.15625 L 37.265625 0 L 29.375 0 L 1.578125 -110.515625 Z M 14.203125 -110.515625 "/></g></g></g></g></g></g></svg>